<?xml version="1.0" standalone="no"?>
<!DOCTYPE svg PUBLIC "-//W3C//DTD SVG 20010904//EN"
 "http://www.w3.org/TR/2001/REC-SVG-20010904/DTD/svg10.dtd">
<svg version="1.0" xmlns="http://www.w3.org/2000/svg"
 width="487.000000pt" height="512.000000pt" viewBox="0 0 487.000000 512.000000"
 preserveAspectRatio="xMidYMid meet">

<g transform="translate(0.000000,512.000000) scale(0.100000,-0.100000)"
fill="#000000" stroke="none">
<path d="M2089 4253 c-197 -239 -380 -584 -423 -798 -23 -116 -36 -279 -36
-448 0 -134 2 -153 25 -208 34 -86 125 -218 203 -297 185 -188 405 -302 716
-371 71 -16 140 -38 155 -48 38 -28 70 -92 86 -170 11 -54 14 -60 13 -28 0 28
14 71 50 145 68 143 131 365 117 412 -4 10 -1 18 6 18 8 0 10 16 5 60 -5 40
-3 60 4 60 6 0 10 34 10 90 0 59 -4 90 -11 90 -8 0 -9 19 -4 60 5 42 4 60 -4
60 -8 0 -10 12 -5 35 4 22 2 35 -5 35 -6 0 -8 7 -5 15 10 25 -56 265 -107 389
-27 66 -72 162 -101 214 -29 53 -53 99 -53 104 0 5 -7 13 -15 18 -8 5 -11 10
-7 10 8 0 -68 118 -87 135 -6 6 -39 44 -73 85 -90 110 -195 216 -306 304 -93
75 -97 80 -81 97 10 11 14 19 11 19 -3 0 -38 -39 -78 -87z"/>
<path d="M1013 2599 c-125 -21 -252 -94 -388 -221 -118 -110 -330 -443 -350
-549 -5 -29 -2 -38 24 -63 17 -16 28 -33 25 -38 -4 -5 12 0 34 11 39 20 119
103 265 278 144 171 245 243 342 243 119 0 181 -82 231 -305 15 -68 18 -130
19 -402 0 -177 3 -325 8 -329 4 -4 7 3 7 15 0 16 4 21 15 17 8 -3 65 -13 127
-22 149 -22 402 -15 532 15 49 11 92 18 97 15 5 -3 9 0 9 5 0 7 22 9 57 7 l57
-4 -71 27 c-191 75 -283 141 -326 238 -39 88 -55 157 -87 400 -44 320 -68 388
-177 495 -129 127 -305 192 -450 167z"/>
<path d="M2138 1263 c7 -3 16 -2 19 1 4 3 -2 6 -13 5 -11 0 -14 -3 -6 -6z"/>
<path d="M1222 1150 c0 -14 2 -19 5 -12 2 6 2 18 0 25 -3 6 -5 1 -5 -13z"/>
</g>
</svg>
